<svg id="Icon_awesome-plus" data-name="Icon awesome-plus" xmlns="http://www.w3.org/2000/svg" width="29.073" height="29.073" viewBox="0 0 29.073 29.073">
  <path id="Icon_awesome-plus-2" data-name="Icon awesome-plus" d="M27,13.672H17.652V4.327A2.077,2.077,0,0,0,15.575,2.25H13.5a2.077,2.077,0,0,0-2.077,2.077v9.345H2.077A2.077,2.077,0,0,0,0,15.748v2.077A2.077,2.077,0,0,0,2.077,19.9h9.345v9.345A2.077,2.077,0,0,0,13.5,31.323h2.077a2.077,2.077,0,0,0,2.077-2.077V19.9H27a2.077,2.077,0,0,0,2.077-2.077V15.748A2.077,2.077,0,0,0,27,13.672Z" transform="translate(0 -2.25)" fill="#fff"/>
</svg>
